# xmcd
#
# Track frame offsets:
#	150
#	21002
#	38363
#	55565
#	77014
#	94757
#	115918
#	135414
#	150755
#	169453
#	188648
#	204872
#	221906
#
# Disc length: 3154 seconds
#
# Revision: 0
# Processed by: cddbd v1.5.2PL0 Copyright (c) Steve Scherf et al.
# Submitted via: EasyCDDAExtractor 10.0.3.1
#
DISCID=970c500d
DTITLE=Disturbed - Indestructible
DYEAR=2008
DGENRE=AlternRock
TTITLE0=Indestructible
TTITLE1=Inside the Fire
TTITLE2=Deceiver
TTITLE3=The Night
TTITLE4=Perfect Insanity
TTITLE5=Haunted
TTITLE6=Enough
TTITLE7=The Curse
TTITLE8=Torn
TTITLE9=Criminal
TTITLE10=Divide
TTITLE11=Facade
TTITLE12=Run (#)
EXTD=
EXTT0=
EXTT1=
EXTT2=
EXTT3=
EXTT4=
EXTT5=
EXTT6=
EXTT7=
EXTT8=
EXTT9=
EXTT10=
EXTT11=
EXTT12=
PLAYORDER=
